<?xml version="1.0" standalone="no"?>
<!DOCTYPE svg PUBLIC "-//W3C//DTD SVG 20010904//EN"
 "http://www.w3.org/TR/2001/REC-SVG-20010904/DTD/svg10.dtd">
<svg version="1.0" xmlns="http://www.w3.org/2000/svg"
 width="310.000000pt" height="310.000000pt" viewBox="0 0 310.000000 310.000000"
 preserveAspectRatio="xMidYMid meet">
<metadata>
Created by potrace 1.11, written by Peter Selinger 2001-2013
</metadata>
<g transform="translate(0.000000,310.000000) scale(0.100000,-0.100000)"
fill="#000000" stroke="none">
<path d="M1585 3033 c-50 -12 -95 -92 -99 -177 -3 -42 -8 -53 -35 -75 -69 -55
-97 -91 -125 -159 -28 -71 -45 -98 -119 -190 -20 -26 -76 -99 -124 -162 -47
-63 -112 -145 -144 -181 -32 -37 -70 -88 -84 -115 -14 -27 -40 -61 -57 -75
-22 -18 -32 -36 -33 -55 0 -19 -6 -30 -20 -34 -11 -3 -21 -12 -23 -20 -2 -8
-9 -18 -17 -22 -7 -4 -16 -19 -19 -33 -4 -15 -17 -30 -31 -35 -26 -10 -85
-113 -72 -126 10 -10 46 11 89 51 20 19 72 63 115 96 43 34 87 69 98 78 45 37
425 424 495 504 42 48 107 141 146 209 40 67 76 124 80 125 5 2 14 -7 19 -19
6 -12 16 -23 23 -26 19 -6 14 23 -8 43 -11 10 -20 21 -20 25 0 4 15 33 34 65
24 39 37 74 41 113 3 32 8 78 11 104 5 41 2 50 -20 73 -24 24 -53 29 -101 18z"/>
<path d="M1596 2573 c5 -68 128 -310 253 -498 131 -198 126 -192 211 -260 36
-29 85 -73 109 -98 45 -47 107 -79 173 -91 44 -8 62 7 79 64 23 75 -19 147
-89 155 -29 3 -50 27 -58 65 -9 42 -19 54 -66 80 -59 33 -74 45 -120 104 -56
71 -174 203 -234 261 -28 28 -56 60 -63 72 -6 13 -17 20 -25 17 -8 -3 -22 9
-35 29 -12 19 -28 38 -36 41 -8 3 -15 12 -15 19 0 11 -69 67 -83 67 -2 0 -2
-12 -1 -27z"/>
<path d="M1403 1880 c-81 -17 -178 -51 -200 -72 -27 -25 -31 -77 -8 -112 14
-21 13 -23 -24 -44 -60 -34 -142 -120 -189 -200 -50 -84 -104 -201 -99 -215 3
-10 107 -39 184 -52 23 -3 120 -1 215 6 245 18 242 18 246 -7 2 -16 -4 -23
-25 -28 -47 -11 -83 -28 -78 -36 10 -16 -27 -40 -59 -40 -20 0 -40 -8 -51 -20
-10 -11 -28 -20 -40 -20 -12 0 -34 -13 -49 -29 -15 -16 -41 -32 -58 -35 -44
-9 -182 -155 -164 -173 3 -4 6 -1 6 5 0 6 6 9 14 6 8 -3 41 14 73 38 85 63
193 111 303 138 19 4 62 18 95 29 33 12 75 27 94 32 40 12 136 63 170 90 78
61 94 139 39 189 -53 49 -114 63 -298 69 -95 4 -173 11 -185 18 -19 11 -18 13
22 51 23 22 59 46 80 52 66 22 197 86 234 116 83 65 237 214 228 219 -15 10
-278 34 -359 34 -41 -1 -94 -5 -117 -9z m-353 -1045 c-7 -9 -15 -13 -19 -10
-3 3 1 10 9 15 21 14 24 12 10 -5z"/>
<path d="M525 1604 c-20 -25 -34 -48 -30 -52 4 -4 16 5 27 21 11 15 26 27 34
27 8 0 14 10 14 25 0 14 -2 25 -4 25 -2 0 -20 -20 -41 -46z"/>
<path d="M456 1505 c-3 -8 -1 -15 4 -15 6 0 10 7 10 15 0 8 -2 15 -4 15 -2 0
-6 -7 -10 -15z"/>
<path d="M379 1381 c-13 -11 -19 -20 -13 -21 15 0 50 27 43 34 -3 4 -17 -2
-30 -13z"/>
<path d="M1825 1046 c-87 -29 -107 -41 -155 -87 -30 -30 -64 -59 -75 -65 -17
-9 -18 -14 -7 -27 11 -12 9 -22 -9 -53 -16 -30 -19 -42 -10 -56 6 -10 11 -29
11 -43 0 -29 57 -66 70 -45 6 9 9 9 13 -1 4 -11 6 -10 6 2 1 8 -3 19 -8 25
-13 13 -16 45 -7 71 17 53 200 118 310 111 59 -4 171 -29 229 -51 16 -5 43
-28 60 -50 18 -21 44 -45 59 -53 25 -13 31 -12 62 8 42 28 76 77 76 110 0 32
-34 76 -63 80 -15 2 -29 18 -45 50 -12 26 -32 54 -45 62 -25 16 -161 36 -287
42 -76 3 -95 0 -185 -30z"/>
<path d="M972 856 c-22 -24 -52 -62 -66 -84 -14 -23 -35 -46 -46 -52 -28 -15
-28 -87 1 -124 36 -45 74 -59 144 -51 l63 6 29 -43 c19 -30 48 -53 90 -76 42
-22 83 -56 129 -108 89 -100 229 -191 369 -242 17 -6 86 -12 155 -15 69 -2
117 -2 108 0 -10 3 -18 8 -18 13 0 15 32 20 48 8 12 -10 16 -10 19 0 3 6 15
12 28 12 12 0 28 7 35 15 7 8 24 15 39 15 16 0 43 15 70 39 l44 39 -44 -3
c-24 -2 -83 -6 -131 -10 -211 -18 -400 70 -551 258 -92 115 -190 192 -347 273
-48 24 -66 28 -137 27 -46 0 -83 4 -83 9 0 4 20 27 44 51 37 35 68 87 53 87
-2 0 -23 -20 -45 -44z"/>
<path d="M1613 625 c38 -33 64 -33 31 0 -14 14 -33 25 -42 25 -13 -1 -11 -6
11 -25z"/>
<path d="M1808 603 c7 -3 16 -2 19 1 4 3 -2 6 -13 5 -11 0 -14 -3 -6 -6z"/>
<path d="M2107 498 c-50 -78 -61 -117 -41 -139 10 -11 14 -27 11 -40 -8 -30 2
-49 27 -49 11 0 32 -9 46 -20 27 -21 114 -28 125 -10 3 5 13 10 22 10 9 0 36
21 59 47 33 36 41 50 32 60 -6 7 -19 13 -28 13 -57 0 -179 96 -190 149 -8 41
-28 35 -63 -21z"/>
<path d="M854 471 c3 -4 1 -22 -4 -40 -9 -31 3 -44 14 -15 10 25 7 64 -5 64
-5 0 -8 -4 -5 -9z"/>
<path d="M2390 310 c-8 -5 -11 -12 -7 -16 4 -4 13 -2 19 4 15 15 7 24 -12 12z"/>
<path d="M2245 189 c-4 -5 -18 -14 -31 -19 -22 -9 -34 -30 -16 -30 9 0 82 49
82 55 0 10 -29 5 -35 -6z"/>
</g>
</svg>
